<?xml version="1.0" standalone="no"?>
<!DOCTYPE svg PUBLIC "-//W3C//DTD SVG 20010904//EN"
 "http://www.w3.org/TR/2001/REC-SVG-20010904/DTD/svg10.dtd">
<svg version="1.0" xmlns="http://www.w3.org/2000/svg"
 width="1516.000000pt" height="1516.000000pt" viewBox="0 0 1516.000000 1516.000000"
 preserveAspectRatio="xMidYMid meet">
<metadata>
Created by potrace 1.14, written by Peter Selinger 2001-2017
</metadata>
<g transform="translate(0.000000,1516.000000) scale(0.100000,-0.100000)"
fill="#000000" stroke="none">
<path d="M8370 10431 c-50 -14 -29 -93 37 -143 64 -49 103 -31 103 47 0 28 -7
44 -31 66 -17 16 -37 29 -44 29 -7 0 -19 2 -27 4 -7 2 -24 1 -38 -3z"/>
<path d="M8842 10048 c-12 -46 4 -119 30 -141 31 -26 41 -9 41 69 1 58 -2 69
-22 85 -32 26 -39 24 -49 -13z"/>
<path d="M7633 10030 c-43 -26 -56 -55 -54 -114 2 -51 38 -171 74 -241 11 -22
61 -83 112 -135 106 -109 119 -130 110 -171 -14 -64 -119 -80 -254 -39 -83 24
-240 102 -343 169 -37 23 -70 42 -75 41 -13 -2 -3 -32 32 -90 31 -50 53 -119
69 -210 3 -19 8 -46 11 -60 20 -99 24 -199 10 -234 -11 -26 -12 -24 -23 35
-12 64 -56 168 -88 210 -24 31 -112 118 -144 144 -30 24 -123 84 -235 150
-101 61 -163 119 -197 187 -27 51 -57 150 -59 193 -1 11 -9 -5 -19 -35 -13
-40 -19 -48 -20 -30 -2 35 -8 61 -14 67 -10 10 -29 -84 -29 -142 2 -105 46
-178 213 -352 52 -54 110 -119 129 -143 31 -41 28 -39 -34 20 -38 36 -72 67
-75 70 -3 3 -48 41 -100 84 -147 122 -210 192 -255 279 -37 73 -40 76 -43 48
-4 -38 -15 -40 -31 -5 -26 57 -35 -14 -15 -117 7 -39 26 -96 41 -127 41 -85
163 -200 326 -310 76 -51 167 -116 204 -143 62 -48 65 -49 59 -23 l-7 27 35
-29 c32 -27 45 -54 81 -171 9 -29 -12 -10 -23 20 -26 71 -134 158 -396 318
-52 31 -124 88 -173 136 -78 76 -88 81 -84 43 1 -9 -8 -4 -24 13 l-25 28 -1
-33 c-4 -114 18 -173 89 -246 58 -60 116 -92 311 -171 172 -70 240 -103 222
-109 -6 -2 -33 6 -59 18 -26 13 -99 43 -162 67 -213 82 -302 132 -343 190
l-19 28 6 -40 6 -40 -35 39 -34 39 10 -34 c22 -69 22 -76 0 -82 -12 -3 -21
-10 -21 -17 0 -21 58 -70 83 -70 16 0 35 -12 52 -32 71 -85 161 -130 300 -152
61 -9 73 -14 65 -26 -8 -12 -18 -12 -72 -1 -35 7 -101 28 -148 46 -51 19 -88
28 -91 23 -4 -7 -14 -6 -28 1 -59 32 10 -81 78 -128 62 -42 183 -74 273 -73
29 1 52 -24 76 -81 13 -31 13 -31 -47 -41 -38 -7 -71 -31 -71 -52 0 -20 47
-47 81 -46 26 1 29 -1 18 -14 -7 -9 -34 -26 -60 -40 -26 -13 -51 -29 -55 -35
-9 -15 -12 -118 -5 -149 4 -14 5 -35 3 -47 -3 -22 -7 -23 -102 -23 l-98 0 -6
-27 c-3 -16 -8 -46 -12 -68 -10 -67 -14 -73 -47 -81 -18 -3 -70 -19 -116 -35
-47 -16 -85 -28 -86 -26 -1 1 -20 54 -41 117 l-40 115 -215 3 -215 2 -18 -102
c-10 -57 -19 -114 -22 -128 -2 -14 -6 -36 -9 -50 -3 -14 -10 -52 -15 -85 -6
-33 -12 -71 -15 -85 -12 -71 -61 -342 -69 -390 -3 -19 -8 -48 -12 -65 -3 -16
-7 -43 -10 -60 -6 -37 -40 -230 -54 -305 -32 -175 -38 -215 -35 -221 2 -3 96
-6 209 -6 l205 0 5 26 c3 14 8 40 11 56 3 17 7 41 9 55 3 14 23 131 45 260 22
129 43 246 45 260 3 14 5 36 6 50 1 33 19 -15 105 -285 36 -115 82 -257 101
-315 l34 -105 71 -2 c78 -1 88 -5 66 -28 -44 -44 -27 -79 57 -119 90 -43 94
-54 82 -211 -7 -84 -6 -92 14 -113 18 -19 30 -22 88 -20 37 1 76 -2 88 -5 25
-9 51 -57 59 -108 7 -49 33 -80 91 -109 69 -35 118 -88 133 -143 15 -53 10
-135 -11 -187 -20 -50 -13 -73 20 -66 72 16 154 18 177 6 59 -31 70 -127 30
-260 -14 -46 -25 -101 -25 -122 0 -34 4 -41 31 -52 30 -13 111 -13 179 0 19 3
46 8 60 11 14 2 76 16 139 30 108 24 115 24 155 9 72 -28 140 -102 151 -166 3
-19 8 -48 11 -65 3 -16 7 -43 10 -59 7 -40 22 -66 38 -66 8 0 35 21 61 46 98
95 178 133 248 120 36 -7 129 -73 210 -149 53 -51 56 -74 12 -109 -51 -40
-123 -188 -142 -292 -13 -73 -7 -208 11 -262 21 -64 71 -122 110 -128 58 -10
125 53 153 143 14 45 18 166 7 226 -2 17 -11 66 -19 110 -35 191 -28 235 47
278 50 29 72 34 111 24 25 -7 102 -51 117 -67 3 -3 17 -11 32 -17 25 -11 32
-9 71 21 71 54 85 58 201 63 111 4 241 27 252 44 9 16 145 80 234 112 67 23
108 31 190 35 58 2 111 9 118 15 22 18 49 136 57 251 9 141 28 178 129 247 90
61 121 95 155 172 33 73 50 84 164 103 87 14 119 31 146 75 19 31 21 89 6 225
l-8 71 33 29 c18 16 38 34 44 39 6 6 57 44 113 84 112 81 111 79 58 146 -18
22 -38 51 -45 64 -14 26 -13 27 54 62 66 35 119 99 145 175 14 38 39 90 57
117 29 42 41 80 60 181 2 15 21 69 40 119 40 105 55 226 35 275 -18 43 -19 91
-4 147 31 114 31 114 -40 177 -91 81 -104 113 -108 266 -1 48 -6 99 -11 114
-6 16 -43 57 -83 93 -75 67 -77 70 -141 243 -13 34 -26 75 -28 90 -3 15 -8 41
-11 58 -5 35 -7 34 100 49 45 7 149 54 180 82 24 22 59 71 68 97 6 14 4 17
-10 11 -10 -4 -31 -8 -48 -10 -16 -1 -68 -16 -115 -33 -47 -17 -109 -35 -137
-40 -48 -8 -53 -8 -53 9 0 11 6 19 13 20 6 0 20 2 29 4 9 2 35 6 56 9 148 20
277 117 348 261 19 39 36 81 39 95 4 24 3 23 -21 -7 -31 -40 -47 -43 -33 -6 9
23 4 21 -39 -19 -27 -26 -71 -57 -98 -71 -71 -36 -336 -139 -342 -133 -6 7 18
36 29 36 16 0 211 79 278 113 141 70 212 169 216 302 2 65 -1 70 -29 38 l-24
-27 3 28 c3 26 -1 23 -58 -35 -34 -35 -75 -74 -90 -87 -28 -23 -149 -102 -177
-116 -45 -21 -194 -122 -210 -141 -7 -8 -16 -15 -21 -15 -36 0 36 59 244 200
281 191 373 313 382 507 3 79 -7 93 -30 41 -14 -31 -14 -32 -16 -8 -1 14 -1
28 0 33 0 4 -3 7 -7 7 -5 0 -26 -34 -48 -76 -47 -92 -77 -124 -263 -284 -79
-67 -166 -146 -193 -174 -40 -41 -45 -44 -26 -16 28 43 58 77 175 203 156 165
194 236 188 348 -1 35 -8 78 -15 94 l-13 30 -8 -44 c-5 -24 -10 -46 -13 -48
-4 -4 -20 67 -18 80 1 4 -3 7 -8 7 -6 0 -10 -10 -11 -22 -1 -27 -5 -52 -15
-87 -4 -14 -8 -28 -8 -31 -1 -3 -12 -27 -25 -54 -36 -74 -114 -143 -260 -229
-151 -90 -229 -152 -300 -237 l-50 -59 -28 33 c-15 18 -41 49 -57 70 -17 21
-64 61 -105 89 -42 27 -113 85 -158 129 -46 43 -87 78 -92 78 -5 0 -16 3 -25
6 -11 4 -37 -15 -80 -59 -84 -83 -116 -97 -163 -72 -31 17 -110 114 -138 169
-6 11 -22 27 -36 35 -25 14 -30 12 -101 -32 -113 -71 -138 -65 -244 51 -114
127 -151 162 -167 162 -10 0 -24 -26 -43 -82 -17 -52 -38 -93 -56 -111 -26
-26 -33 -29 -76 -24 -26 4 -76 15 -110 27 -80 25 -107 25 -180 0 -68 -23 -125
-30 -167 -19 -36 9 -78 16 -164 25 -127 13 -163 42 -187 153 -27 122 -76 203
-154 250 -46 27 -123 28 -167 1z m3023 -1035 c-3 -9 -11 -13 -16 -10 -8 5 -7
11 1 21 14 18 24 11 15 -11z m-3666 -161 c0 -2 -7 -4 -15 -4 -8 0 -15 4 -15
10 0 5 7 7 15 4 8 -4 15 -8 15 -10z m-593 -1210 c24 -18 33 -33 33 -54 0 -41
-23 -170 -30 -170 -5 0 -90 247 -90 263 0 11 52 -12 87 -39z"/>
<path d="M5755 8899 c-114 -35 -102 -136 30 -257 138 -126 452 -199 480 -111
15 47 -43 157 -119 226 -112 103 -298 170 -391 142z"/>
<path d="M1792 8053 c2 -7 -7 -62 -18 -123 -2 -8 -6 -35 -9 -60 -3 -25 -8 -52
-10 -60 -2 -8 -6 -31 -9 -50 -3 -19 -8 -46 -11 -60 -2 -14 -7 -36 -10 -50 -2
-14 -7 -41 -10 -60 -3 -19 -13 -73 -21 -120 -9 -47 -18 -96 -20 -110 -2 -14
-7 -41 -10 -60 -3 -19 -8 -46 -10 -60 -3 -14 -9 -47 -14 -75 -6 -27 -12 -63
-15 -80 -2 -16 -16 -95 -30 -175 -14 -80 -28 -158 -31 -175 -3 -16 -9 -54 -14
-84 -6 -30 -10 -62 -10 -71 0 -15 45 -17 528 -17 290 0 534 3 542 7 9 5 16 19
18 32 1 12 12 83 25 156 l24 132 -334 0 -335 0 6 28 c8 35 11 51 26 139 l12
73 276 2 277 3 12 65 c6 36 14 81 17 100 3 19 7 44 10 55 2 11 7 38 10 60 l7
41 -271 1 c-149 0 -273 3 -276 5 -2 3 0 29 6 59 5 30 12 70 15 89 3 19 10 55
16 80 l10 45 332 0 332 0 12 65 c6 36 14 79 17 95 3 17 8 40 10 52 3 11 8 42
11 67 l7 45 -546 1 c-300 0 -545 -3 -544 -7z"/>
<path d="M3076 8048 c-2 -7 -11 -56 -20 -108 -9 -52 -26 -147 -37 -210 -11
-63 -22 -128 -25 -145 -2 -16 -8 -52 -14 -80 -5 -27 -12 -68 -16 -90 -3 -22
-9 -56 -14 -75 -4 -19 -11 -57 -15 -83 -3 -27 -8 -59 -11 -70 -5 -27 -64 -361
-71 -402 -3 -16 -13 -71 -22 -122 -13 -64 -15 -93 -7 -96 6 -3 175 -4 376 -2
304 1 377 5 434 19 148 36 267 119 349 244 69 105 91 177 136 452 12 69 23
136 26 150 6 30 23 141 28 190 7 59 -11 167 -37 223 -44 98 -119 156 -251 195
-71 21 -803 31 -809 10z m574 -339 c59 -33 83 -79 84 -157 0 -62 -5 -117 -18
-185 -3 -15 -10 -54 -16 -87 -6 -33 -12 -70 -14 -82 -46 -261 -92 -308 -298
-308 -97 0 -98 0 -93 23 3 12 7 36 9 52 3 25 37 225 52 305 2 14 6 39 9 55 3
17 10 53 15 80 12 62 21 114 24 140 3 20 18 103 22 118 1 4 2 20 3 36 1 35 11
37 115 33 47 -2 82 -9 106 -23z"/>
<path d="M4462 8048 c0 -11 -47 -275 -67 -383 -3 -16 -14 -79 -25 -140 -11
-60 -22 -123 -25 -140 -3 -16 -8 -46 -11 -65 -8 -50 -11 -67 -44 -250 -16 -91
-32 -183 -35 -205 -4 -22 -8 -47 -10 -55 -3 -8 -7 -32 -11 -54 -3 -21 -8 -48
-10 -60 -4 -23 -12 -66 -18 -107 l-4 -26 539 0 c297 0 542 3 544 7 4 7 6 18
25 120 5 33 13 72 15 87 3 16 8 47 11 71 l6 42 -331 0 c-182 0 -331 3 -331 8
0 4 7 45 15 92 8 47 16 96 18 110 l4 25 275 3 276 2 8 38 c4 20 8 42 10 47 1
6 5 30 8 55 4 25 9 52 11 60 2 8 7 29 10 45 2 17 7 40 9 52 3 12 -1 23 -7 26
-7 2 -129 4 -272 4 l-260 0 0 24 c-1 13 3 44 8 69 4 25 9 54 11 65 15 103 19
115 35 115 9 1 154 1 322 1 168 0 312 4 319 9 15 9 73 296 64 312 -3 4 -247 8
-543 8 -423 0 -538 -3 -539 -12z"/>
<path d="M11818 7725 c-1 -2 -21 -6 -44 -9 -98 -15 -203 -64 -262 -124 -47
-46 -112 -170 -112 -213 0 -91 135 -70 285 46 146 113 237 246 192 283 -15 13
-52 23 -59 17z"/>
<path d="M11250 6364 c-102 -21 -142 -51 -117 -85 17 -23 143 -64 267 -88 147
-28 166 -30 335 -37 124 -5 157 -4 188 9 41 17 66 61 49 87 -12 19 -93 46
-164 54 -31 4 -99 20 -150 37 -79 26 -112 31 -218 34 -82 2 -147 -1 -190 -11z"/>
<path d="M5609 6299 c-41 -44 -39 -76 5 -84 74 -14 124 47 76 95 -28 28 -47
25 -81 -11z"/>
<path d="M5210 6246 c-191 -52 -299 -135 -270 -211 11 -29 55 -43 123 -39 160
11 407 144 407 220 0 18 -9 28 -36 39 -51 21 -124 18 -224 -9z"/>
<path d="M6765 5257 c-48 -49 -95 -121 -95 -147 0 -31 119 66 164 134 55 83
10 91 -69 13z"/>
<path d="M10691 5256 c-44 -53 65 -189 152 -190 34 -1 43 3 56 25 14 25 13 29
-23 78 -60 81 -154 125 -185 87z"/>
<path d="M10120 4728 c0 -54 44 -169 86 -224 13 -18 45 -44 71 -59 77 -44 101
-72 113 -130 19 -92 82 -162 144 -161 32 1 57 63 50 120 -7 63 -24 87 -84 126
-72 47 -85 60 -126 136 -52 95 -88 138 -150 179 -62 42 -104 46 -104 13z"/>
<path d="M9728 4728 c-71 -24 -44 -219 44 -314 82 -89 153 -49 152 86 -1 68
-28 132 -79 182 -45 44 -80 58 -117 46z"/>
<path d="M9417 4440 c-55 -44 -75 -160 -45 -259 67 -217 223 -316 267 -170 40
134 3 314 -84 404 -51 52 -94 60 -138 25z"/>
</g>
</svg>
